<svg xmlns="http://www.w3.org/2000/svg" width="372" height="30" viewBox="0 0 372 30" preserveAspectRatio="none" shape-rendering="crispEdges">
    <title>
        TETR.IO Skin "Hard Drop Wiki" by kernymi
    </title>
    <g id="Z">
        <path fill="#ff0000" d="M0 0 h30 v30 h-30 z"/>
    </g>
    <g id="L">
        <path fill="#ff7700" d="M31 0 h30 v30 h-30 z"/>
    </g>
    <g id="O">
        <path fill="#ffff00" d="M62 0 h30 v30 h-30 z"/>
    </g>
    <g id="S">
        <path fill="#00ff00" d="M93 0 h30 v30 h-30 z"/>
    </g>
    <g id="I">
        <path fill="#0077ff" d="M124 0 h30 v30 h-30 z"/>
    </g>
    <g id="J">
        <path fill="#0000ff" d="M155 0 h30 v30 h-30 z"/>
    </g>
    <g id="T">
        <path fill="#ff00ff" d="M186 0 h30 v30 h-30 z"/>
    </g>
    <g id="ghost">
        <path fill="#ffffff" d="M217 0 h30 v30 h-30 z"/>
    </g>
    <g id="hold">
        <path fill="#ffffff" d="M248 0 h30 v30 h-30 z"/>
    </g>
    <g id="garbage">
        <path fill="#ffffff" d="M279 0 h30 v30 h-30 z"/>
    </g>
    <g id="hurryup">
        <path fill="#000000" d="M310 0 h30 v30 h-30 z"/>
    </g>
    <g id="x">
        <path fill="#bf3745" fill-rule="evenodd" d="M343.5 2.5 h2.5 v2.5 h-2.5 v-2.5 z M366 2.5 h2.5 v2.5 h-2.5 v-2.5 z M346 5 h2.5 v2.5 h-2.5 v-2.5 z M363.5 5 h2.5 v2.5 h-2.5 v-2.5 z M348.5 7.5 h2.5 v2.5 h-2.5 v-2.5 z M361 7.5 h2.5 v2.5 h-2.5 v-2.5 z M351 10 h2.5 v2.5 h-2.5 v-2.5 z M358.5 10 h2.5 v2.5 h-2.5 v-2.5 z M353.5 12.5 h5 v5 h-5 v-5 z M351 17.5 h2.5 v2.5 h-2.5 v-2.5 z M358.5 17.5 h2.5 v2.5 h-2.5 v-2.5 z M348.5 20 h2.5 v2.5 h-2.5 v-2.5 z M361 20 h2.5 v2.5 h-2.5 v-2.5 z M346 22.5 h2.5 v2.5 h-2.5 v-2.5 z M363.5 22.5 h2.5 v2.5 h-2.5 v-2.5 z M343.5 25 h2.5 v2.5 h-2.5 v-2.5 z M366 25 h2.5 v2.5 h-2.5 v-2.5 z"/>
    </g>
</svg>